Coordinates
version=1
nRows=6
nColumns=63
inDegrees=yes

Units are S.I. units (second, meters, Newtons, ...)
If the header above contains a line with 'inDegrees', this indicates whether rotational values are in degrees (yes) or radians (no).

endheader
time	pelvis_tilt	pelvis_list	pelvis_rotation	pelvis_tx	pelvis_ty	pelvis_tz	hip_flexion_r	hip_adduction_r	hip_rotation_r	knee_angle_r	knee_angle_r_beta	ankle_angle_r	subtalar_angle_r	mtp_angle_r	hip_flexion_l	hip_adduction_l	hip_rotation_l	knee_angle_l	knee_angle_l_beta	ankle_angle_l	subtalar_angle_l	mtp_angle_l	L5_S1_Flex_Ext	L5_S1_Lat_Bending	L5_S1_axial_rotation	L4_L5_Flex_Ext	L4_L5_Lat_Bending	L4_L5_axial_rotation	L3_L4_Flex_Ext	L3_L4_Lat_Bending	L3_L4_axial_rotation	L2_L3_Flex_Ext	L2_L3_Lat_Bending	L2_L3_axial_rotation	L1_L2_Flex_Ext	L1_L2_Lat_Bending	L1_L2_axial_rotation	L1_T12_Flex_Ext	L1_T12_Lat_Bending	L1_T12_axial_rotation	Abs_r3	Abs_r2	Abs_r1	Abs_t1	Abs_t2	neck_flexion	neck_bending	neck_rotation	arm_flex_r	arm_add_r	arm_rot_r	elbow_flex_r	pro_sup_r	wrist_flex_r	wrist_dev_r	arm_flex_l	arm_add_l	arm_rot_l	elbow_flex_l	pro_sup_l	wrist_flex_l	wrist_dev_l
      4.66666667	     -7.35097724	     -4.54284220	     99.58314770	      0.10352298	      0.50232699	      0.78086531	     -2.38896656	     -0.95911230	     -5.02118771	      1.58813731	      0.02771823	     25.97241582	      8.56321765	      0.00000000	      1.27060818	      1.69533736	     -3.20094936	      5.90680030	      0.10309311	     23.37113486	     12.46775077	      0.00000000	     -0.45465062	     -0.89770481	     -2.48145862	     -0.84433166	     -1.19394740	     -2.63654978	     -0.74694550	     -2.18267947	     -2.63654978	     -0.51962019	     -2.18267947	     -2.17127629	     -0.42218856	     -1.83059965	     -2.01618513	     -0.25978736	     -1.39054475	     -1.86109397	     -3.24752389	    -10.15501635	    -13.80112841	      0.00000000	      0.00000000	      3.49375065	      1.70263849	     11.42063593	     28.41981211	     -4.92417486	     90.39525703	      0.69117030	      0.49929616	     62.88192441	    -24.52990508	    -19.03786929	    -17.30578162	      2.48207478	     91.94025745	     88.99150676	    -17.13710755	     12.55731436
      4.68888889	     -4.96305843	     -6.75793256	    100.16219959	      0.09422159	      0.49275484	      0.77397401	     -0.44233196	      0.81061788	     -2.94476340	      1.12145821	      0.01957314	     26.34778179	      5.65072778	      0.00000000	      3.40243741	      0.07656479	     -1.91045718	      5.69471741	      0.09939157	     26.03752226	     11.83708435	      0.00000000	     -0.22882794	     -0.40692180	      0.03478653	     -0.42495636	     -0.54120599	      0.03696068	     -0.37594142	     -0.98938966	      0.03696068	     -0.26152745	     -0.98938966	      0.03043821	     -0.21248962	     -0.82979493	      0.02826405	     -0.13075228	     -0.63032186	      0.02608989	     -1.63449508	     -4.60318075	      0.19347222	      0.00000000	      0.00000000	      6.93208681	     -4.59803718	      2.32963876	     -9.34022616	     -7.05768244	    -18.54767895	     74.41418635	     77.45616228	     -9.99903875	     11.58449587	     -8.02240625	    -18.84616149	     20.55898115	     87.00114993	     88.85068827	    -18.95072703	     11.77541410
      4.71111111	     -4.71991433	     -6.58823662	    100.40700290	      0.09335179	      0.49330760	      0.77402195	     -0.56552766	      1.05016515	     -3.55004534	      1.14556357	      0.01999386	     26.26724957	      6.22738760	      0.00000000	      3.27811036	     -0.14500034	     -1.63076949	      5.63298318	      0.09831410	     26.17550211	     11.70329053	      0.00000000	     -0.24318837	     -0.36465174	      0.01717735	     -0.45162512	     -0.48498681	      0.01825093	     -0.39953417	     -0.88661423	      0.01825093	     -0.27793999	     -0.88661423	      0.01503018	     -0.22582472	     -0.74359782	      0.01395660	     -0.13895783	     -0.56484554	      0.01288301	     -1.73707021	     -4.12501338	      0.09553526	      0.00000000	      0.00000000	      6.77413694	     -4.88539986	      2.31371864	     -9.42050299	     -7.56005375	    -18.15420293	     74.41508848	     76.26834262	     -9.56167456	     11.68924563	     -7.99668906	    -18.40365802	     20.36752544	     86.73590317	     88.84571421	    -18.49317151	     12.00806680
      4.73333333	     -4.39687685	     -6.68201307	    102.16892076	      0.09083455	      0.49348475	      0.77470181	     -0.52345266	      1.38890752	     -4.64221442	      1.11668457	      0.01948982	     26.13424219	      5.28558538	      0.00000000	      3.90812594	     -0.36168546	      0.07218525	      6.10573081	      0.10656511	     26.53851415	     11.66264599	      0.00000000	     -0.23086156	     -0.32502360	     -0.33542761	     -0.42873300	     -0.43228139	     -0.35639183	     -0.37928245	     -0.79026238	     -0.35639183	     -0.26385167	     -0.79026238	     -0.29349915	     -0.21437804	     -0.66278812	     -0.27253493	     -0.13191429	     -0.50346155	     -0.25157070	     -1.64902101	     -3.67673195	     -1.86554771	      0.00000000	      0.00000000	      6.88839707	     -4.82759651	      2.76351304	     -9.11991961	     -7.69152445	    -17.76482250	     74.94965427	     81.36162367	     -8.96984106	     14.25342552	     -8.34209575	    -18.27067492	     20.03766012	     87.04520766	     88.84357949	    -18.03068324	     14.36472254
      4.75555556	     -4.07094207	     -6.63845100	    103.25455916	      0.08879145	      0.49382816	      0.77508704	     -0.54878005	      1.71233738	     -5.35138367	      1.13132204	      0.01974529	     25.99554898	      4.78933328	      0.00000000	      4.12989050	     -0.57019514	      1.53655916	      6.21725273	      0.10851153	     26.80725671	     11.05455363	      0.00000000	     -0.23514013	     -0.27862231	     -0.51639363	     -0.43667873	     -0.37056767	     -0.54866823	     -0.38631172	     -0.67744229	     -0.54866823	     -0.26874165	     -0.67744229	     -0.45184442	     -0.21835112	     -0.56816662	     -0.41956982	     -0.13435907	     -0.43158596	     -0.38729522	     -1.67958242	     -3.15183130	     -2.87202643	      0.00000000	      0.00000000	      6.81142947	     -4.66973258	      2.81953827	     -9.03546113	     -8.18627671	    -16.82458288	     75.98342723	     84.59420695	     -7.62118148	     16.01950169	     -8.33373791	    -17.91940556	     20.07747526	     86.64479447	     88.74783140	    -16.51826682	     16.26384522
      4.77777778	     -3.67680611	     -6.53054813	    104.42052941	      0.08642456	      0.49427566	      0.77542228	     -0.63134714	      2.11008728	     -6.26988670	      1.12988104	      0.01972014	     25.82298551	      4.49075914	      0.00000000	      4.25057894	     -0.79514617	      3.73680139	      6.22534119	      0.10865270	     26.90010742	      9.50647727	      0.00000000	     -0.23792150	     -0.21932292	     -0.71265684	     -0.44184403	     -0.29169949	     -0.75719789	     -0.39088124	     -0.53326176	     -0.75719789	     -0.27192049	     -0.53326176	     -0.62357474	     -0.22093391	     -0.44724331	     -0.57903368	     -0.13594835	     -0.33973121	     -0.53449263	     -1.69944952	     -2.48102479	     -3.96358356	      0.00000000	      0.00000000	      6.63329511	     -4.49963366	      2.94237101	     -9.06455996	     -8.95859375	    -15.01362433	     77.43435535	     86.18390530	     -6.19241056	     16.61299727	     -7.96794338	    -17.46279442	     20.53779854	     85.57364024	     88.62710655	    -14.37310524	     17.44123813
